<svg width="16" height="16" viewBox="0 0 16 16" fill="none" xmlns="http://www.w3.org/2000/svg">
<path fill-rule="evenodd" clip-rule="evenodd" d="M1.36406 7.20406C1.36406 3.97872 3.97872 1.36406 7.20406 1.36406C10.4294 1.36406 13.0441 3.97872 13.0441 7.20406C13.0441 8.7756 12.4239 10.2016 11.4145 11.251C11.385 11.2742 11.3555 11.2996 11.328 11.328C11.2996 11.3555 11.2742 11.385 11.251 11.4145C10.2016 12.4239 8.7756 13.0441 7.20406 13.0441C3.97872 13.0441 1.36406 10.4294 1.36406 7.20406ZM11.6746 12.8526C10.4457 13.8266 8.89272 14.4075 7.20377 14.4075C3.2249 14.4075 0 11.1827 0 7.20377C0 3.2249 3.2249 0 7.20377 0C11.1827 0 14.4075 3.2249 14.4075 7.20377C14.4075 8.89272 13.8266 10.4457 12.8526 11.6746L15.7555 14.5775C16.0815 14.9025 16.0815 15.4305 15.7555 15.7555C15.4305 16.0815 14.9025 16.0815 14.5775 15.7555L11.6746 12.8526Z" fill="#6D6D7A"/>
</svg>
